<svg width="30" height="30" viewBox="0 0 30 30" fill="none" xmlns="http://www.w3.org/2000/svg">
<path d="M15.1035 22.7499C10.8789 22.7499 7.44141 19.3124 7.44141 15.0878C7.44141 10.8631 10.8789 7.42566 15.1035 7.42566C19.3281 7.42566 22.7656 10.8631 22.7656 15.0878C22.7656 19.3133 19.3281 22.7499 15.1035 22.7499ZM15.1035 10.6101C12.6347 10.6101 10.6258 12.619 10.6258 15.0878C10.6258 17.5566 12.6347 19.5655 15.1035 19.5655C17.5723 19.5655 19.5812 17.5566 19.5812 15.0878C19.5812 12.619 17.5723 10.6101 15.1035 10.6101Z" fill="url(#paint0_linear_212_407)"/>
<path d="M22.6711 9.2381C23.6669 9.2381 24.4741 8.43089 24.4741 7.43515C24.4741 6.43941 23.6669 5.6322 22.6711 5.6322C21.6754 5.6322 20.8682 6.43941 20.8682 7.43515C20.8682 8.43089 21.6754 9.2381 22.6711 9.2381Z" fill="url(#paint1_linear_212_407)"/>
<path d="M21.4181 30H8.58103C3.84938 30 0 26.1506 0 21.419V8.58103C0 3.84938 3.84938 0 8.58103 0H21.419C26.1506 0 30 3.84938 30 8.58103V21.419C30 26.1497 26.1497 30 21.4181 30V30ZM8.58103 3.18352C5.6052 3.18352 3.1844 5.60433 3.1844 8.58015V21.4181C3.1844 24.3939 5.6052 26.8147 8.58103 26.8147H21.419C24.3948 26.8147 26.8156 24.3939 26.8156 21.4181V8.58103C26.8156 5.6052 24.3948 3.1844 21.419 3.1844H8.58103V3.18352Z" fill="url(#paint2_linear_212_407)"/>
<defs>
<linearGradient id="paint0_linear_212_407" x1="2.16721" y1="28.0243" x2="25.768" y2="4.42365" gradientUnits="userSpaceOnUse">
<stop stop-color="#FEE411"/>
<stop offset="0.0518" stop-color="#FEDB16"/>
<stop offset="0.1381" stop-color="#FEC125"/>
<stop offset="0.2481" stop-color="#FE983D"/>
<stop offset="0.3762" stop-color="#FE5F5E"/>
<stop offset="0.5" stop-color="#FE2181"/>
<stop offset="1" stop-color="#9000DC"/>
</linearGradient>
<linearGradient id="paint1_linear_212_407" x1="2.12447" y1="27.9817" x2="25.7251" y2="4.38104" gradientUnits="userSpaceOnUse">
<stop stop-color="#FEE411"/>
<stop offset="0.0518" stop-color="#FEDB16"/>
<stop offset="0.1381" stop-color="#FEC125"/>
<stop offset="0.2481" stop-color="#FE983D"/>
<stop offset="0.3762" stop-color="#FE5F5E"/>
<stop offset="0.5" stop-color="#FE2181"/>
<stop offset="1" stop-color="#9000DC"/>
</linearGradient>
<linearGradient id="paint2_linear_212_407" x1="2.07095" y1="27.9282" x2="25.6717" y2="4.32743" gradientUnits="userSpaceOnUse">
<stop stop-color="#FEE411"/>
<stop offset="0.0518" stop-color="#FEDB16"/>
<stop offset="0.1381" stop-color="#FEC125"/>
<stop offset="0.2481" stop-color="#FE983D"/>
<stop offset="0.3762" stop-color="#FE5F5E"/>
<stop offset="0.5" stop-color="#FE2181"/>
<stop offset="1" stop-color="#9000DC"/>
</linearGradient>
</defs>
</svg>
