<svg width="26" height="30" viewBox="0 0 26 30" fill="none" xmlns="http://www.w3.org/2000/svg">
<path d="M10.1318 11.8145V10.6454C9.7342 10.5811 9.33257 10.5459 8.93001 10.5401C5.03268 10.5316 1.58227 13.109 0.411905 16.9028C-0.758466 20.6965 0.623021 24.8263 3.82201 27.0978C2.64893 25.8166 1.8643 24.2162 1.56283 22.4899C1.26136 20.7636 1.45593 18.9852 2.12305 17.3692C2.79018 15.7533 3.90135 14.369 5.32243 13.3833C6.74351 12.3977 8.41377 11.8528 10.1316 11.8146L10.1318 11.8145Z" fill="#25F4EE"/>
<path d="M10.344 25.057C12.523 25.054 14.3141 23.3021 14.4095 21.0805V1.25529H17.9584C17.886 0.841026 17.8515 0.42079 17.8552 0L13.001 0V19.8061C12.9202 22.039 11.1248 23.8077 8.93543 23.8113C8.28115 23.8056 7.63754 23.6414 7.05762 23.3322C7.43348 23.8637 7.92709 24.2969 8.4982 24.5966C9.06931 24.8964 9.70175 25.0541 10.344 25.057V25.057ZM24.5873 7.98176V6.87983C23.2811 6.88036 22.004 6.48703 20.9161 5.74924C21.8697 6.88062 23.1584 7.6643 24.5873 7.98176V7.98176Z" fill="#25F4EE"/>
<path d="M20.9222 5.74973C19.8505 4.5044 19.2598 2.90349 19.2603 1.24609H17.9645C18.1319 2.16245 18.4804 3.03439 18.989 3.8087C19.4975 4.58302 20.1553 5.24346 20.9222 5.74973V5.74973ZM8.93212 15.4946C8.0233 15.4993 7.14212 15.814 6.42865 16.3885C5.71519 16.963 5.2104 17.7645 4.99454 18.6654C4.77868 19.5664 4.86414 20.5151 5.23733 21.3608C5.61052 22.2065 6.25002 22.9006 7.05417 23.3327C6.61451 22.7132 6.35122 21.9817 6.29339 21.219C6.23556 20.4564 6.38545 19.6923 6.72648 19.0111C7.06752 18.3299 7.58643 17.7582 8.22589 17.3592C8.86535 16.9601 9.60046 16.7492 10.35 16.7498C10.7575 16.7552 11.1621 16.82 11.5517 16.942V11.9014C11.1539 11.8405 10.7523 11.8085 10.35 11.8056H10.1339V15.6383C9.7423 15.5311 9.33744 15.4827 8.93212 15.4946V15.4946Z" fill="#FE2C55"/>
<path d="M24.5871 7.98206V11.8149C22.1691 11.8101 19.8138 11.029 17.855 9.58228V19.653C17.8446 24.6782 13.8499 28.7464 8.92586 28.7464C7.0971 28.7498 5.31237 28.1739 3.81787 27.0983C5.03654 28.436 6.6217 29.3682 8.36689 29.7734C10.1121 30.1786 11.9364 30.038 13.6022 29.3701C15.268 28.7021 16.6981 27.5377 17.7062 26.0284C18.7143 24.5192 19.2536 22.7351 19.254 20.9086V10.8664C21.2195 12.3036 23.5776 13.0745 25.9955 13.0702V8.13502C25.5221 8.13358 25.0501 8.08232 24.5871 7.98206V7.98206Z" fill="#FE2C55"/>
<path d="M17.8561 19.6532V9.58247C19.8209 11.021 22.1795 11.792 24.5976 11.7863V7.95359C23.169 7.64571 21.8773 6.87221 20.9171 5.74973C20.1502 5.24346 19.4924 4.58302 18.9838 3.8087C18.4753 3.03439 18.1267 2.16245 17.9594 1.24609H14.4104V21.0812C14.3759 21.9446 14.0786 22.7756 13.56 23.4586C13.0414 24.1417 12.3272 24.6429 11.5166 24.8926C10.706 25.1424 9.83929 25.1282 9.03694 24.8521C8.2346 24.576 7.53645 24.0517 7.03953 23.3521C6.23525 22.92 5.59561 22.2259 5.22232 21.3802C4.84904 20.5344 4.76353 19.5856 4.9794 18.6846C5.19528 17.7835 5.70014 16.982 6.41371 16.4075C7.12727 15.8329 8.00858 15.5183 8.91748 15.5137C9.32511 15.5175 9.73002 15.582 10.1193 15.7054V11.8726C8.39226 11.9025 6.71104 12.4445 5.28064 13.4326C3.85023 14.4208 2.73246 15.8123 2.06359 17.4375C1.39472 19.0628 1.20367 20.8515 1.51372 22.5856C1.82377 24.3198 2.62153 25.9244 3.80973 27.2038C5.31892 28.244 7.10619 28.7828 8.92697 28.7466C13.851 28.7466 17.8457 24.6784 17.8561 19.6532V19.6532Z" fill="black"/>
</svg>
