<svg width="35" height="25" viewBox="0 0 35 25" fill="none" xmlns="http://www.w3.org/2000/svg">
<path fill-rule="evenodd" clip-rule="evenodd" d="M0 3.40909C0 1.5263 1.567 0 3.5 0H31.5C33.433 0 35 1.5263 35 3.40909V21.5909C35 23.4737 33.433 25 31.5 25H3.5C1.56701 25 0 23.4737 0 21.5909V3.40909ZM7 9.09091C7 6.58052 9.08934 4.54545 11.6667 4.54545C14.244 4.54545 16.3333 6.58052 16.3333 9.09091C16.3333 11.6013 14.244 13.6364 11.6667 13.6364C9.08934 13.6364 7 11.6013 7 9.09091ZM28 9.09091H21V6.81818H28V9.09091ZM28 15.9091H21V13.6364H28V15.9091ZM11.6667 15.9091C9.07974 15.9091 6.71483 17.3327 5.55792 19.5864L4.78984 21.0827C4.60901 21.435 4.62833 21.8533 4.84091 22.1883C5.05348 22.5233 5.42899 22.7273 5.83333 22.7273H17.5C17.9043 22.7273 18.2799 22.5233 18.4924 22.1883C18.705 21.8533 18.7243 21.435 18.5435 21.0827L17.7754 19.5864C16.6185 17.3327 14.2536 15.9091 11.6667 15.9091Z" fill="#001E44"/>
</svg>
