<svg width="30" height="19" viewBox="0 0 30 19" fill="none" xmlns="http://www.w3.org/2000/svg">
<path d="M29.8383 16.5073C28.6131 14.3023 25.457 11.6528 24.154 10.4999C23.7975 10.1842 23.7593 9.63806 24.0838 9.28898C26.5704 6.61696 28.5592 3.54677 29.2438 1.69157C29.5458 0.872035 28.9206 0.00613617 28.0397 0.00613617H25.4809C24.6375 0.00613617 24.1438 0.30886 23.9086 0.790899C21.842 5.02562 20.0693 6.85832 18.8284 7.92945C18.1337 8.52944 17.0503 8.0324 17.0503 7.11946C17.0503 5.36039 17.0503 3.08655 17.0503 1.47407C17.0503 0.692037 16.4107 0.0593174 15.6219 0.0593174L10.9474 0.00613617C10.359 0.00613617 10.0229 0.672264 10.376 1.1393L11.1478 2.24724C11.4383 2.6311 11.5951 3.09814 11.5951 3.57746L11.591 8.56694C11.591 9.43488 10.539 9.85897 9.91445 9.2508C7.80152 7.19309 5.96814 2.9911 5.30815 0.981806C5.11724 0.400222 4.57247 0.00749979 3.95475 0.00613617L1.4341 0C0.488432 0 -0.202923 0.89658 0.0541194 1.7993C2.35727 9.88351 7.0829 17.5743 15.5046 18.4082C16.3344 18.49 17.0503 17.8218 17.0503 16.9948V14.3725C17.0503 13.6205 17.64 12.9742 18.3982 12.9551C18.4248 12.9544 18.4514 12.9544 18.478 12.9544C20.7055 12.9544 23.2002 16.1964 24.0729 17.7127C24.3238 18.1491 24.7929 18.415 25.3002 18.415H28.6908C29.6801 18.415 30.3149 17.3657 29.8383 16.5073Z" fill="black"/>
</svg>
