<?xml version="1.0" standalone="no"?>
<!DOCTYPE svg PUBLIC "-//W3C//DTD SVG 20010904//EN"
 "http://www.w3.org/TR/2001/REC-SVG-20010904/DTD/svg10.dtd">
<svg version="1.0" xmlns="http://www.w3.org/2000/svg"
 width="260.000000pt" height="260.000000pt" viewBox="0 0 260.000000 260.000000"
 preserveAspectRatio="xMidYMid meet">
<metadata>
Created by potrace 1.14, written by Peter Selinger 2001-2017
</metadata>
<g transform="translate(0.000000,260.000000) scale(0.100000,-0.100000)"
fill="#000000" stroke="none">
<path d="M130 2587 c-47 -15 -107 -78 -120 -126 -7 -27 -9 -395 -8 -1178 3
-1132 3 -1138 24 -1178 11 -22 40 -53 63 -70 l43 -30 1161 0 c1159 0 1162 0
1202 21 22 11 54 40 70 63 l30 43 0 1161 c0 1159 0 1162 -21 1202 -11 22 -40
54 -63 70 l-43 30 -1151 2 c-820 1 -1162 -2 -1187 -10z m1405 -662 c287 -43
497 -137 651 -289 128 -128 182 -267 156 -405 -50 -273 -358 -490 -797 -562
-117 -19 -397 -17 -520 5 -420 74 -723 295 -767 560 -53 317 288 611 799 690
120 19 355 19 478 1z"/>
<path d="M1063 1909 c-97 -14 -245 -55 -338 -93 -338 -137 -516 -397 -435
-636 30 -89 69 -147 150 -224 403 -380 1317 -380 1720 0 82 78 125 142 151
225 99 318 -221 631 -734 719 -128 22 -392 26 -514 9z m577 -32 c189 -45 318
-99 435 -182 257 -182 314 -432 150 -654 -115 -156 -364 -285 -650 -337 -150
-27 -424 -25 -570 4 -141 28 -260 68 -372 126 -361 186 -456 508 -225 757 140
152 341 248 627 300 151 28 459 21 605 -14z"/>
<path d="M1050 1666 c0 -8 8 -17 18 -21 16 -7 15 -8 -3 -15 -16 -7 -17 -9 -3
-9 25 -1 34 20 13 31 -14 8 -15 12 -4 19 11 7 10 9 -3 9 -10 0 -18 -6 -18 -14z"/>
<path d="M1228 1666 c-19 -14 -25 -42 -7 -30 6 3 15 0 20 -7 6 -9 9 -10 9 -2
0 6 -5 15 -10 18 -8 5 -7 11 1 21 14 17 9 17 -13 0z"/>
<path d="M1372 1650 c0 -19 2 -27 5 -17 2 9 2 25 0 35 -3 9 -5 1 -5 -18z"/>
<path d="M1501 1649 c1 -27 3 -29 6 -10 l5 25 19 -25 19 -24 -1 35 c-1 19 -3
27 -6 17 -5 -18 -6 -18 -24 -1 -18 17 -19 16 -18 -17z"/>
<path d="M1130 1650 c0 -5 5 -10 10 -10 6 0 10 5 10 10 0 6 -4 10 -10 10 -5 0
-10 -4 -10 -10z"/>
<path d="M1290 1650 c0 -5 5 -10 10 -10 6 0 10 5 10 10 0 6 -4 10 -10 10 -5 0
-10 -4 -10 -10z"/>
<path d="M1430 1649 c0 -5 5 -7 10 -4 6 3 10 8 10 11 0 2 -4 4 -10 4 -5 0 -10
-5 -10 -11z"/>
<path d="M1028 1488 c18 -18 15 -48 -6 -48 -16 0 -18 -6 -12 -49 6 -52 20 -75
53 -93 19 -10 19 -9 3 13 -9 14 -16 43 -16 71 0 43 2 47 28 51 l27 4 -27 2
c-24 1 -28 5 -28 31 0 22 -5 30 -17 30 -13 0 -14 -3 -5 -12z"/>
<path d="M1148 1395 c-3 -95 -1 -105 15 -105 14 0 17 9 17 48 0 56 21 92 55
92 34 0 55 -36 55 -92 0 -40 3 -48 19 -48 16 0 18 6 14 53 -6 71 -38 101 -100
94 l-43 -5 0 34 c0 23 -5 34 -14 34 -12 0 -15 -22 -18 -105z"/>
<path d="M1579 1468 c-3 -117 10 -160 51 -171 20 -5 21 -4 6 12 -9 10 -19 41
-23 69 -6 50 -5 50 23 55 l29 4 -29 2 c-26 1 -28 4 -24 31 4 24 1 30 -14 30
-13 0 -18 -8 -19 -32z"/>
<path d="M1714 1479 c-10 -17 13 -36 27 -22 12 12 4 33 -11 33 -5 0 -12 -5
-16 -11z"/>
<path d="M642 1415 c-20 -17 -32 -36 -32 -51 0 -32 42 -74 72 -73 15 0 18 3 8
6 -23 8 -40 34 -40 59 0 22 5 23 71 26 l71 3 -18 23 c-12 15 -34 25 -60 29
-33 4 -45 1 -72 -22z m96 3 c21 -21 13 -28 -33 -28 -25 0 -45 4 -45 8 0 15 24
32 45 32 12 0 26 -5 33 -12z"/>
<path d="M853 1428 c-43 -21 -20 -78 31 -78 8 0 26 -4 40 -10 28 -10 26 -36
-2 -43 -15 -4 -14 -5 1 -6 28 -2 57 18 57 39 0 24 -37 50 -71 50 -33 0 -54 21
-37 38 19 19 57 14 70 -8 7 -11 16 -20 21 -20 4 0 0 11 -10 25 -20 27 -61 32
-100 13z"/>
<path d="M1413 1430 c-26 -11 -43 -40 -43 -74 0 -26 41 -66 69 -66 11 0 10 4
-7 16 -14 10 -22 25 -22 45 l0 29 65 0 c74 0 88 18 35 45 -32 17 -64 18 -97 5z
m82 -20 c18 -20 17 -20 -33 -20 -29 0 -52 2 -52 4 0 3 7 12 16 20 21 22 47 20
69 -4z"/>
<path d="M1717 1433 c-4 -3 -7 -37 -7 -75 0 -61 2 -69 18 -66 14 3 18 16 20
76 2 56 0 72 -11 72 -7 0 -17 -3 -20 -7z"/>
<path d="M1825 1428 c-52 -28 -61 -84 -19 -117 15 -12 34 -21 43 -21 11 0 10
4 -7 16 -16 11 -22 25 -22 54 0 64 51 93 87 50 18 -21 43 -27 43 -10 0 13 -55
40 -82 40 -13 0 -32 -6 -43 -12z"/>
<path d="M768 1331 c-8 -11 -25 -25 -39 -30 -16 -7 -19 -10 -7 -10 20 -1 76
44 67 54 -4 3 -13 -3 -21 -14z"/>
<path d="M1522 1330 c-7 -12 -23 -25 -35 -30 -12 -5 -16 -9 -9 -9 21 -1 51 18
62 39 14 26 -2 26 -18 0z"/>
<path d="M1932 1330 c-7 -12 -23 -25 -35 -30 -12 -5 -16 -9 -9 -9 21 -1 51 18
62 39 14 26 -2 26 -18 0z"/>
<path d="M830 1320 c0 -12 34 -30 57 -29 14 0 15 2 3 6 -8 3 -19 12 -23 19 -9
16 -37 19 -37 4z"/>
<path d="M1656 1155 c-10 -8 -22 -12 -26 -10 -4 3 -13 -2 -20 -10 -10 -12 -7
-13 18 -5 17 4 33 6 36 4 3 -2 4 -1 1 3 -3 3 0 12 6 20 15 17 9 16 -15 -2z"/>
<path d="M843 1143 c9 -2 25 -2 35 0 9 3 1 5 -18 5 -19 0 -27 -2 -17 -5z"/>
<path d="M1147 1122 c-23 -25 -22 -29 14 -29 29 0 29 1 10 12 -17 8 -19 13 -9
23 7 7 10 12 7 12 -3 0 -13 -8 -22 -18z"/>
<path d="M1545 1114 c-16 -13 -42 -26 -58 -30 -16 -3 -26 -8 -23 -12 7 -6 126
40 126 50 0 17 -17 14 -45 -8z"/>
<path d="M950 1128 c3 -3 32 -24 65 -48 l60 -42 -43 40 c-24 23 -53 44 -65 48
-12 3 -20 4 -17 2z"/>
<path d="M1637 1106 l-38 -12 25 -14 c14 -7 29 -10 33 -7 3 4 1 7 -6 7 -7 0
-3 9 10 20 27 22 27 22 -24 6z"/>
<path d="M1700 1109 c-20 -8 -22 -12 -10 -19 20 -13 53 -13 45 0 -3 6 3 10 14
10 12 0 21 5 21 10 0 13 -37 12 -70 -1z"/>
<path d="M1058 1093 c6 -2 18 -2 25 0 6 3 1 5 -13 5 -14 0 -19 -2 -12 -5z"/>
<path d="M1418 1063 c6 -2 18 -2 25 0 6 3 1 5 -13 5 -14 0 -19 -2 -12 -5z"/>
<path d="M1298 1053 c12 -2 32 -2 45 0 12 2 2 4 -23 4 -25 0 -35 -2 -22 -4z"/>
<path d="M1103 1015 c15 -14 32 -25 37 -23 5 2 -7 14 -28 27 l-37 23 28 -27z"/>
<path d="M1465 1020 c10 -11 19 -20 19 -20 1 0 2 9 2 20 0 13 -7 20 -20 20
-18 0 -19 -1 -1 -20z"/>
<path d="M1551 1001 c14 -11 26 -15 28 -9 4 12 -17 28 -38 28 -8 0 -3 -8 10
-19z"/>
<path d="M1071 963 c5 -21 9 -54 10 -73 1 -32 2 -33 9 -10 6 18 8 20 9 7 1
-10 6 -15 12 -12 7 5 5 13 -5 24 -9 10 -16 31 -16 48 0 17 -6 36 -14 42 -12
10 -13 6 -5 -26z"/>
<path d="M1225 989 c-16 -5 -39 -6 -50 -4 -11 3 3 -6 30 -20 28 -14 55 -31 60
-39 8 -11 13 -11 22 -1 9 10 6 14 -14 20 -15 3 -36 13 -47 21 l-20 14 21 0
c12 0 25 -4 28 -10 3 -5 12 -10 18 -9 8 0 8 2 -1 6 -10 4 -10 8 -1 19 14 17 1
17 -46 3z"/>
<path d="M1160 953 c0 -18 18 -35 33 -31 12 2 10 7 -9 21 -13 10 -24 14 -24
10z"/>
<path d="M1185 900 c3 -5 8 -10 11 -10 2 0 4 5 4 10 0 6 -5 10 -11 10 -5 0 -7
-4 -4 -10z"/>
<path d="M1316 889 c20 -23 31 -24 31 -5 0 8 -11 16 -24 19 -23 4 -23 3 -7
-14z"/>
<path d="M1231 893 c-1 -17 16 -25 25 -12 4 7 3 9 -4 5 -5 -3 -13 0 -15 6 -4
9 -6 10 -6 1z"/>
<path d="M1291 867 c2 -1 13 -9 24 -17 19 -14 19 -14 6 3 -7 9 -18 17 -24 17
-6 0 -8 -1 -6 -3z"/>
<path d="M1340 836 c0 -2 7 -7 16 -10 8 -3 12 -2 9 4 -6 10 -25 14 -25 6z"/>
</g>
</svg>
