<svg width="350" height="218" viewBox="0 0 350 218" fill="none" xmlns="http://www.w3.org/2000/svg">
<path d="M76.3508 111.151C85.0617 111.151 89.9451 106.444 91.1329 101.12L88.8452 100.724C86.8655 105.784 82.422 109.875 76.3508 109.875V109.831C70.5435 109.831 67.6399 104.288 67.6399 98.6126C67.6399 97.6007 67.7279 96.5889 67.9479 95.577H90.957C90.737 94.6971 90.0771 93.2453 90.0771 93.2453L89.6811 92.5414L89.1972 91.7935C88.8452 91.3535 89.0652 91.5295 88.6693 91.1336V91.0896C88.0973 90.5176 88.4493 90.8256 87.7894 90.1217C87.7454 90.1217 87.7454 90.1217 87.7454 90.0777C87.4374 89.9457 87.3934 89.8577 87.1294 89.5498C87.0854 89.5058 87.0415 89.5058 87.0415 89.4618C86.2936 88.9338 86.2496 88.8018 85.5896 88.4499C84.4898 87.834 84.8857 87.966 84.2698 87.746C84.2258 87.702 84.1818 87.658 84.1378 87.658C83.082 87.1301 83.3019 87.306 82.378 86.9541C82.0701 86.9101 82.2021 86.7781 81.6741 86.7781C81.1462 86.6021 80.9702 86.6461 80.7502 86.5141C80.6623 86.5141 80.5743 86.5141 80.5303 86.4701C79.6064 86.3382 79.9583 86.2062 78.7705 86.2062C78.6385 86.2062 78.5065 86.2062 78.3746 86.1622C77.0107 86.0742 77.3627 86.0742 75.9989 86.0742C66.1881 86.2062 61.3047 92.4094 61.3047 98.6126C61.3047 104.904 66.3201 111.151 76.3508 111.151ZM84.4018 94.2572H68.2558C69.3557 90.4296 72.0834 87.394 76.3508 87.394C80.6183 87.482 83.2579 90.2537 84.4018 94.2572Z" fill="black"/>
<path d="M109.946 111.151C118.789 111.107 122.528 107.763 122.528 104.156C122.528 100.02 117.557 95.5769 109.726 95.5769C105.018 95.5769 102.951 93.7291 102.951 91.7934C102.951 89.6376 105.458 87.3939 109.77 87.3939C114.037 87.3939 116.721 90.4295 117.865 94.2571L121.56 93.6411L121.736 93.2452C120.108 92.8492 118.657 92.0133 117.513 90.8695C115.885 89.2417 114.873 87.042 114.873 84.5783C114.873 82.1146 115.885 79.8709 117.513 78.2871C119.141 76.6593 121.34 75.6474 123.804 75.6474C126.312 75.6474 128.511 76.6593 130.139 78.2871C131.767 79.8709 132.779 82.1146 132.779 84.5783C132.779 85.0622 132.691 85.5902 132.647 86.0741H125.564V87.3939H127.631V97.9526C127.631 104.244 132.559 110.491 142.59 110.491V110.315C136.782 110.315 133.703 103.584 133.703 97.9526V87.3939H140.302C141.314 87.3939 142.37 88.5378 142.37 89.4177H142.59V88.1418C142.59 87.8779 142.502 87.6139 142.326 87.3939C142.326 87.3499 142.326 87.3499 142.282 87.3499L142.238 87.2619C142.238 87.2619 142.238 87.218 142.194 87.218L142.15 87.13C142.15 87.086 142.106 87.086 142.062 87.042V86.998L141.93 86.866C141.886 86.822 141.842 86.778 141.798 86.778V86.734C141.754 86.734 141.71 86.69 141.666 86.646L141.534 86.514H141.49C141.446 86.514 141.402 86.47 141.358 86.4261C141.006 86.2061 140.654 86.0741 140.302 86.0741H133.703V77.8031C133.703 76.7913 134.847 75.6914 135.726 75.6914V75.5154H127.543C126.4 75.0315 125.124 74.8115 123.804 74.8115C121.12 74.8115 118.657 75.8674 116.897 77.6712C115.137 79.4309 114.037 81.8506 114.037 84.5783C114.037 85.2382 114.081 85.8981 114.213 86.558C112.893 86.2501 111.397 86.0741 109.726 86.0741H109.55C100.663 86.1181 96.9229 89.5057 96.9229 93.0692C96.9229 97.2047 101.895 101.648 109.726 101.648C114.433 101.648 116.501 103.496 116.501 105.432C116.501 107.587 113.993 109.831 109.682 109.831C105.414 109.831 102.731 106.795 101.631 102.968L95.9551 103.936C98.0228 108.027 102.599 111.151 109.682 111.151H109.946Z" fill="black"/>
<path d="M181.277 110.491V110.315C180.353 110.315 179.209 109.215 179.209 108.203V98.6127C179.209 92.3215 174.238 86.0743 164.251 86.0743C160.775 86.0743 157.784 86.8662 155.54 88.098V77.8033C155.584 76.7915 156.728 75.6916 157.608 75.6916V75.5156H151.889C150.745 75.5156 149.513 76.4395 149.513 77.8033V108.203C149.469 109.215 148.325 110.315 147.445 110.315V110.491H153.296C154.352 110.491 155.54 109.435 155.54 108.203V98.6127C155.54 92.9814 158.444 87.3501 164.251 87.3501C170.058 87.3501 173.138 92.9814 173.138 98.6127V108.203C173.138 109.215 174.282 110.491 175.206 110.491H181.277Z" fill="black"/>
<path d="M201.179 111.151C209.89 111.151 214.773 106.444 215.961 101.12L213.673 100.724C211.693 105.784 207.25 109.875 201.179 109.875V109.831C195.372 109.831 192.468 104.288 192.468 98.6126C192.468 97.6007 192.556 96.5889 192.776 95.577H215.785C215.565 94.6971 214.905 93.2453 214.905 93.2453L214.509 92.5414L214.025 91.7935C213.673 91.3535 213.893 91.5295 213.497 91.1336V91.0896C212.925 90.5176 213.277 90.8256 212.617 90.1217C212.573 90.1217 212.573 90.1217 212.573 90.0777C212.265 89.9457 212.221 89.8577 211.957 89.5498C211.913 89.5058 211.869 89.5058 211.869 89.4618C211.122 88.9338 211.078 88.8018 210.418 88.4499C209.318 87.834 209.714 87.966 209.098 87.746C209.054 87.702 209.01 87.658 208.966 87.658C207.91 87.1301 208.13 87.306 207.206 86.9541C206.898 86.9101 207.03 86.7781 206.502 86.7781C205.974 86.6021 205.798 86.6461 205.578 86.5141C205.49 86.5141 205.402 86.5141 205.358 86.4701C204.434 86.3382 204.786 86.2062 203.598 86.2062C203.466 86.2062 203.335 86.2062 203.203 86.1622C201.839 86.0742 202.191 86.0742 200.827 86.0742C191.016 86.2062 186.133 92.4094 186.133 98.6126C186.133 104.904 191.148 111.151 201.179 111.151ZM209.23 94.2572H193.084C194.184 90.4296 196.911 87.394 201.179 87.394C205.446 87.482 208.086 90.2537 209.23 94.2572Z" fill="black"/>
<path d="M235.872 110.491V110.315C230.065 110.315 226.941 103.584 226.941 97.9528V87.3501H233.584C234.596 87.3941 235.652 88.494 235.652 89.4179H235.872V88.098C235.872 87.8781 235.74 87.6141 235.608 87.3501C235.3 86.8662 234.86 86.4263 234.156 86.2063C233.98 86.1183 233.76 86.0743 233.584 86.0743H226.941V77.8033C226.985 76.7915 228.129 75.6916 229.009 75.6916V75.5156H222.937C222.058 75.5156 220.914 76.7915 220.914 77.8033V86.0743H218.846V87.3501H220.914V97.9528C220.914 104.244 225.841 110.491 235.872 110.491Z" fill="black"/>
<path d="M246.808 110.491C247.687 110.491 248.831 109.259 248.831 108.247V88.362C248.875 87.3501 250.019 86.2943 250.899 86.2943V86.0743H244.828C243.948 86.0743 242.804 87.3501 242.804 88.362V108.247C242.76 109.259 241.616 110.315 240.736 110.315V110.491H246.808ZM245.84 83.6986C247.511 83.6986 248.831 82.3788 248.831 80.707C248.831 79.0352 247.511 77.6714 245.84 77.6714C244.168 77.6714 242.804 79.0352 242.804 80.707C242.804 82.3788 244.168 83.6986 245.84 83.6986Z" fill="black"/>
<path d="M269.036 111.151C277.703 111.151 282.63 106.444 283.774 101.12L281.53 100.724C279.55 105.784 275.107 109.875 269.036 109.875L268.728 109.831C263.14 109.655 260.325 104.156 260.325 98.6126C260.325 93.0253 263.228 87.394 269.036 87.394C273.303 87.394 275.987 90.4296 277.131 94.2572L282.762 93.2893C280.694 89.2418 276.119 86.0742 269.036 86.0742C259.005 86.0742 253.99 92.3654 253.99 98.6126C253.99 104.904 259.005 111.151 269.036 111.151Z" fill="black"/>
<path d="M136.374 55.8352C135.635 55.8352 134.918 55.7303 134.225 55.5204C133.54 55.3105 132.997 55.0322 132.596 54.6855L133.212 53.3031C133.604 53.6133 134.083 53.8688 134.649 54.0696C135.224 54.2612 135.799 54.357 136.374 54.357C137.085 54.357 137.615 54.2429 137.961 54.0148C138.317 53.7867 138.495 53.4856 138.495 53.1115C138.495 52.8377 138.395 52.6142 138.194 52.4408C138.002 52.2583 137.756 52.1169 137.455 52.0165C137.154 51.9161 136.743 51.8021 136.223 51.6743C135.493 51.501 134.9 51.3276 134.444 51.1542C133.997 50.9808 133.609 50.7117 133.28 50.3467C132.961 49.9726 132.801 49.4707 132.801 48.8411C132.801 48.3118 132.943 47.8328 133.226 47.4039C133.518 46.9659 133.951 46.6192 134.526 46.3637C135.11 46.1082 135.822 45.9805 136.661 45.9805C137.245 45.9805 137.82 46.0535 138.386 46.1995C138.951 46.3455 139.44 46.5553 139.85 46.8291L139.289 48.2115C138.869 47.9651 138.431 47.778 137.975 47.6503C137.519 47.5226 137.076 47.4587 136.647 47.4587C135.945 47.4587 135.42 47.5773 135.073 47.8145C134.736 48.0518 134.567 48.3666 134.567 48.759C134.567 49.0327 134.663 49.2563 134.854 49.4296C135.055 49.603 135.306 49.7399 135.607 49.8402C135.908 49.9406 136.319 50.0547 136.839 50.1824C137.551 50.3467 138.135 50.52 138.591 50.7025C139.047 50.8759 139.435 51.1451 139.754 51.5101C140.083 51.8751 140.247 52.3678 140.247 52.9883C140.247 53.5175 140.101 53.9966 139.809 54.4254C139.526 54.8543 139.093 55.1965 138.509 55.452C137.925 55.7075 137.213 55.8352 136.374 55.8352Z" fill="black"/>
<path d="M162.555 51.6879L161.036 53.2482V55.6982H159.256V46.1172H161.036V51.0309L165.771 46.1172H167.77L163.746 50.4013L168.016 55.6982H165.936L162.555 51.6879Z" fill="black"/>
<path d="M186.473 46.1172H188.253V55.6982H186.473V46.1172Z" fill="black"/>
<path d="M216.603 46.1172V55.6982H215.139L209.856 49.2105V55.6982H208.09V46.1172H209.555L214.838 52.605V46.1172H216.603Z" fill="black"/>
<path d="M150.559 50.8103C150.559 51.8902 149.683 52.7656 148.604 52.7656C147.524 52.7656 146.648 51.8902 146.648 50.8103C146.648 49.7304 147.524 48.855 148.604 48.855C149.683 48.855 150.559 49.7304 150.559 50.8103Z" fill="black"/>
<path d="M176.955 50.8103C176.955 51.8902 176.08 52.7656 175 52.7656C173.92 52.7656 173.045 51.8902 173.045 50.8103C173.045 49.7304 173.92 48.855 175 48.855C176.08 48.855 176.955 49.7304 176.955 50.8103Z" fill="black"/>
<path d="M199.441 50.8103C199.441 51.8902 198.566 52.7656 197.486 52.7656C196.406 52.7656 195.531 51.8902 195.531 50.8103C195.531 49.7304 196.406 48.855 197.486 48.855C198.566 48.855 199.441 49.7304 199.441 50.8103Z" fill="black"/>
<path d="M252.723 141.048C252.919 140.559 252.821 140.168 252.332 139.777C251.452 139.19 250.084 138.994 249.106 138.897C247.835 138.799 246.564 138.897 245.293 139.092C243.436 139.483 241.774 140.168 240.112 140.95C239.916 141.048 239.623 141.145 239.427 141.341C238.352 141.439 237.276 141.634 236.299 141.732C236.201 141.732 236.005 141.634 235.908 141.634C235.712 141.634 235.419 141.732 235.321 141.83C234.539 141.927 233.757 142.025 232.975 142.123C234.93 141.634 236.788 140.754 237.765 138.994C237.765 138.897 237.863 138.799 237.863 138.701C237.961 138.506 237.276 138.701 237.179 138.799C237.179 138.897 237.081 138.897 237.081 138.897C236.396 138.603 235.614 138.701 234.93 138.897C233.757 139.288 232.681 139.972 231.508 140.363C230.14 140.852 228.673 141.243 227.207 141.439C227.011 141.341 226.718 141.243 226.424 141.243C225.936 141.243 225.349 141.341 224.958 141.732C224.469 141.732 223.883 141.83 223.394 141.83C223.296 141.83 223.1 141.927 222.905 142.025C222.318 141.927 221.732 141.732 221.145 141.732C219.581 141.536 218.114 141.634 216.55 141.927C217.821 141.341 219.092 140.656 220.363 140.07C223.296 139.386 226.131 138.408 228.869 137.235C229.553 137.235 230.335 137.137 231.019 136.941C235.028 136.453 239.036 136.062 243.045 135.573C243.142 135.573 243.338 135.475 243.436 135.377C243.631 135.279 243.924 135.084 243.631 134.986C243.338 134.888 243.142 134.888 242.849 134.888C242.067 134.497 241.187 134.302 240.307 134.4C238.938 134.4 237.472 134.595 236.103 134.791C235.126 134.986 234.148 135.182 233.072 135.377C234.246 134.791 235.321 134.008 236.299 133.129C236.788 132.737 237.276 132.249 237.667 131.76C238.059 131.369 238.547 130.684 238.059 130.196C238.059 130 237.57 130 237.081 130C236.396 130.098 235.614 130.293 234.93 130.587C232.29 131.467 229.846 132.933 227.891 134.888C227.695 135.084 227.5 135.182 227.304 135.377C227.207 135.377 227.109 135.377 227.011 135.475C226.815 135.475 226.522 135.67 226.62 135.866C226.62 135.964 226.718 135.964 226.718 136.062L226.62 136.159C224.665 137.039 222.709 137.919 220.656 138.603C222.416 137.332 224.078 135.768 225.349 133.911C225.642 133.52 225.838 133.129 225.838 132.64C225.838 132.151 225.447 131.858 225.056 131.76C223.98 131.564 223.1 132.444 222.416 133.031C221.438 133.813 220.559 134.791 219.679 135.67C219.581 135.768 219.483 135.866 219.385 136.062C219.288 136.159 219.092 136.355 218.994 136.453C218.603 136.844 218.017 137.528 217.919 138.212C205.796 147.598 188.883 148.967 173.338 148.673C161.313 148.478 149.288 146.131 137.458 143.003C140.098 143.101 142.835 142.905 145.475 142.416L145.572 142.514C148.994 144.469 153.003 145.056 156.913 144.176C157.207 144.078 157.793 143.589 157.304 143.296C155.838 142.514 154.371 141.927 152.709 141.634C153.1 141.536 153.491 141.439 153.883 141.341C154.469 141.243 154.762 140.559 153.98 140.461C152.612 140.265 151.243 140.265 149.874 140.559C152.025 138.897 153.883 136.941 155.545 134.791C155.74 134.595 155.447 134.302 155.251 134.302C154.958 134.204 154.665 134.302 154.371 134.497C151.438 136.355 148.701 138.701 146.55 141.439C146.55 141.536 146.452 141.536 146.452 141.536C146.355 141.536 146.257 141.536 146.159 141.634H146.061C145.964 141.634 145.964 141.634 145.866 141.634C141.369 142.514 136.774 142.416 132.374 141.536C129.246 140.656 126.117 139.777 122.989 138.799C122.695 138.701 122.5 138.603 122.207 138.603C122.109 138.506 122.011 138.506 121.913 138.506C113.603 136.062 104.902 133.129 95.9082 134.204C95.5171 134.302 96.8858 135.084 96.8858 135.084C97.4724 135.377 98.3523 135.964 99.0367 135.866C105.684 134.986 112.234 136.55 118.589 138.408C118.589 138.506 118.687 138.506 118.785 138.603C127.486 144.078 132.57 152.193 136.871 161.969C136.774 164.413 137.067 166.858 137.849 169.106C137.947 169.4 138.045 169.595 138.24 169.693C138.338 169.791 138.436 169.791 138.631 169.791C138.631 169.986 138.631 170.182 138.631 170.279C138.436 170.377 138.436 170.573 138.631 170.573C138.631 171.062 138.729 171.55 138.827 171.941C137.849 173.799 137.262 175.852 137.067 178.003C136.871 179.763 136.871 182.011 138.338 183.184C138.533 183.282 138.924 183.184 138.924 182.989C139.12 182.989 139.218 182.891 139.315 182.793C140.782 179.567 140.978 175.95 140.098 172.528C141.075 174.777 141.857 177.123 142.444 179.469C142.444 179.567 142.737 179.665 142.933 179.567C143.031 180.056 143.128 180.545 143.226 181.034C143.519 182.011 143.813 183.38 144.986 183.478C146.061 183.575 146.452 182.598 146.355 181.718C146.257 180.545 145.768 179.274 145.279 178.296C145.279 178.296 145.279 178.296 145.279 178.198C145.279 178.198 145.377 178.101 145.279 178.101L145.181 178.003C145.084 177.905 145.084 177.807 144.986 177.71C145.181 177.71 145.475 177.514 145.377 177.416C144.302 176.634 143.422 175.656 142.64 174.679V174.581C142.64 174.483 142.542 174.483 142.444 174.483L142.346 174.386C142.248 174.288 142.248 174.19 142.151 174.092L142.053 173.994C140.88 172.235 140.195 170.182 140.098 168.031C140.098 167.346 140.098 166.564 140.098 165.88C141.76 167.933 144.106 169.4 146.648 170.182C146.746 170.182 147.332 170.084 147.332 169.986C146.648 168.715 145.475 167.835 144.302 166.955C143.031 165.978 141.76 164.902 140.684 163.631C138.338 161.187 136.48 158.352 134.525 155.615H134.427C131.788 150.629 128.561 146.034 124.455 142.221C128.464 145.447 132.472 148.575 136.48 151.802C139.12 153.855 141.857 155.908 144.79 157.765C146.746 160.992 149.092 163.827 151.732 166.271C152.514 167.933 153.296 169.595 153.98 171.355C154.371 172.235 154.762 173.115 155.251 174.092C155.545 174.777 155.838 175.363 156.327 175.95C156.718 176.439 157.304 176.83 157.891 176.634C158.38 176.536 158.673 176.048 158.673 175.559C158.673 174.874 158.38 174.19 158.086 173.603C157.793 172.919 157.5 172.235 157.109 171.648C157.011 171.55 157.011 171.453 156.913 171.355C156.913 171.355 157.011 171.453 157.109 171.453C157.304 171.453 157.598 171.55 157.793 171.55C159.357 172.626 160.922 173.701 162.486 174.777C162.388 174.874 162.29 174.972 162.388 175.07C163.17 176.341 163.952 177.612 164.832 178.785C165.321 179.372 165.81 180.056 166.299 180.643C166.69 181.131 167.081 181.718 167.667 182.109C168.156 182.402 168.841 182.305 169.232 181.816C169.623 181.229 169.427 180.643 169.134 180.056C168.841 179.274 168.352 178.589 167.765 177.905C173.24 181.034 178.813 183.967 183.994 187.193C184.972 187.975 185.95 188.659 187.025 189.344C187.221 189.441 187.709 189.344 187.612 189.05C187.514 188.464 187.123 187.975 186.732 187.486C186.243 186.997 185.852 186.508 185.363 186.117C184.385 185.237 183.212 184.651 181.843 184.749C181.843 184.749 181.746 184.749 181.648 184.749C178.813 182.305 176.173 178.883 172.165 179.078H172.067C171.676 178.981 171.187 178.883 170.796 178.785C170.796 178.785 170.796 178.785 170.698 178.785C166.69 176.536 162.779 174.19 159.162 171.55C159.26 171.55 159.357 171.55 159.455 171.55C161.41 171.941 163.17 172.724 165.028 173.506C165.223 173.603 165.908 173.31 165.614 173.212C165.517 173.212 165.517 173.115 165.419 173.115C165.712 173.212 166.103 173.31 166.396 173.506C166.592 173.603 167.081 173.506 167.081 173.212C166.788 170.084 162.681 170.573 160.531 170.279C157.5 169.888 155.153 167.64 153.1 165.684C152.905 165.587 152.416 165.684 152.416 165.88C152.416 165.782 152.318 165.782 152.221 165.782C149.972 163.631 147.919 161.187 146.159 158.548C147.43 159.232 148.701 159.916 149.972 160.503C149.972 160.503 149.972 160.503 150.07 160.503C150.363 160.601 150.754 160.796 151.047 160.894C151.145 160.894 151.145 160.894 151.243 160.992C156.033 162.947 160.824 165 165.419 167.444C165.614 167.542 165.81 167.64 166.005 167.737C166.005 167.835 165.908 167.835 165.908 167.933C165.81 168.031 165.908 168.031 166.005 168.031C166.201 168.031 166.494 168.031 166.69 168.031C166.885 168.129 167.081 168.226 167.276 168.324C169.036 169.791 170.209 172.039 171.187 174.092C171.285 174.288 171.871 174.092 171.871 173.897C171.774 172.43 171.285 171.062 170.503 169.888C173.338 172.724 176.173 175.461 179.204 178.101C179.986 178.785 180.866 179.665 181.746 180.251C182.137 180.545 182.919 180.545 183.017 179.958C183.212 179.274 182.332 178.394 182.039 177.905C181.55 177.221 180.964 176.536 180.279 175.95C180.181 175.852 180.084 175.852 179.986 175.754C180.964 176.145 182.039 176.243 183.114 176.145C183.505 176.243 183.994 176.243 184.19 175.95C184.483 175.363 183.114 175.07 182.821 174.874C181.941 174.483 181.061 174.19 180.181 173.897C178.422 173.31 176.564 172.821 174.707 172.528C174.511 172.528 174.315 172.528 174.218 172.626C173.142 171.648 172.067 170.573 171.089 169.497C172.458 169.986 173.827 170.279 175.195 170.475C175.489 170.573 175.88 170.67 176.173 170.768C176.271 170.768 176.955 170.573 176.76 170.475C176.76 170.475 176.662 170.475 176.662 170.377C176.76 170.377 176.857 170.279 176.76 170.182C175.195 169.008 173.338 168.422 171.48 168.031C170.014 167.542 168.547 167.249 167.081 167.053C166.983 166.955 166.885 166.955 166.788 166.858C166.788 166.76 166.788 166.76 166.69 166.662C164.539 165 162.388 163.24 159.944 162.165C159.455 161.969 158.966 161.774 158.38 161.578C159.651 161.481 161.019 161.383 162.29 161.285C163.561 161.481 164.832 161.872 165.908 162.654C167.081 163.436 167.961 164.707 169.427 165C170.209 165.098 171.969 164.805 171.578 163.631C171.383 163.143 170.796 162.654 170.307 162.36C170.014 162.067 169.623 161.872 169.329 161.676C170.698 161.872 172.067 162.067 173.436 162.165C173.533 162.165 173.631 162.263 173.729 162.263C174.511 162.556 175.391 162.751 176.271 162.654C176.662 162.654 176.955 162.654 177.346 162.654C177.444 162.654 178.031 162.458 177.835 162.36H177.737C177.933 162.263 178.031 162.263 178.226 162.165L178.324 162.067C178.031 161.872 177.64 161.578 177.346 161.383C177.346 161.383 177.248 161.383 177.151 161.383C174.707 159.818 171.48 159.721 168.938 160.992C168.938 160.992 168.841 160.992 168.841 161.089C168.352 160.992 167.863 160.992 167.374 160.992C167.374 160.992 167.374 160.992 167.276 160.992C168.45 160.796 169.525 160.405 170.698 160.014C171.187 159.818 171.871 159.427 171.871 158.841C171.871 158.352 171.383 158.059 170.894 158.156C169.232 157.081 167.179 158.156 165.614 158.743C163.366 159.623 161.019 160.405 158.575 160.992C158.38 160.992 158.282 161.187 158.282 161.285C157.011 161.285 155.838 161.187 154.567 160.894C153.883 160.698 153.198 160.503 152.612 160.307C146.648 157.668 141.857 154.148 137.262 150.531C132.863 147.011 128.464 143.589 124.064 140.07C124.162 140.07 124.162 140.07 124.26 140.07C126.41 140.754 128.561 141.341 130.81 142.025C130.81 142.123 130.908 142.123 131.005 142.123C131.396 142.221 131.788 142.221 132.081 142.318C137.556 143.883 143.128 145.251 148.701 146.425C161.802 149.162 175.293 150.433 188.589 149.26C188.589 149.26 188.687 149.358 188.785 149.358C192.891 149.846 196.802 151.215 200.223 153.268C201.103 154.344 202.081 155.321 202.961 156.397C203.45 156.983 204.036 157.57 204.525 158.254C204.916 158.743 205.405 159.427 206.089 159.623C206.578 159.818 207.262 159.623 207.36 159.036C207.556 158.45 207.067 157.863 206.774 157.472C205.991 156.397 205.112 155.419 204.036 154.539C203.841 154.441 203.645 154.246 203.547 154.148C206.285 155.321 209.413 155.126 212.248 156.006C214.008 156.592 215.768 157.57 217.137 158.743C218.114 159.525 218.896 160.601 220.07 160.992C220.167 161.089 220.265 161.089 220.363 161.089C220.461 161.089 220.656 161.089 220.754 161.187C220.852 161.187 221.243 161.089 221.243 160.992C221.536 159.721 220.852 158.743 219.874 157.961C220.07 157.961 220.167 157.961 220.363 157.961C221.047 157.961 221.829 157.863 222.514 157.765C223.296 157.57 224.176 157.277 224.86 156.983C225.153 156.886 225.545 156.788 225.838 156.69C226.131 156.592 226.522 156.494 226.62 156.201C226.718 156.103 226.913 156.103 227.011 156.006C227.109 155.908 227.207 155.81 227.109 155.712C224.176 153.953 220.95 156.494 217.821 155.908C214.497 153.953 210.293 154.148 206.48 154.441C206.383 154.441 206.285 154.539 206.187 154.539C204.916 154.246 203.743 153.855 202.667 153.17C204.036 153.464 205.503 153.464 206.774 152.975C207.751 152.779 208.729 152.388 208.924 151.508C208.924 151.411 208.827 151.411 208.729 151.411C206.871 151.606 204.916 151.802 203.059 151.997C202.179 152.095 201.103 152.291 200.223 152.193C200.126 152.193 200.028 152.193 199.93 152.193C199.148 152.095 198.464 151.9 197.975 151.313C197.877 151.215 197.584 151.313 197.486 151.411C195.237 150.433 192.793 149.651 190.349 149.26C192.598 148.967 194.846 148.673 197.095 148.282C203.254 147.109 209.315 145.349 215.084 142.905C218.408 141.927 221.927 142.221 225.153 143.589C226.62 144.274 228.086 145.056 229.553 145.838C230.726 146.425 232.095 147.305 233.366 147.598C233.659 147.696 234.05 147.696 234.343 147.598C234.343 147.598 234.343 147.598 234.441 147.598C234.539 147.598 235.126 147.5 235.126 147.402C235.126 147.305 235.126 147.305 235.028 147.207C235.126 147.109 235.126 147.109 235.223 147.011C235.712 146.034 234.441 144.86 233.757 144.372C232.681 143.589 231.41 143.198 230.14 143.101C230.14 143.101 230.14 143.101 230.14 143.003C230.433 143.003 230.628 142.905 230.824 142.905C231.019 142.905 231.215 142.807 231.508 142.807C231.313 142.905 231.215 143.101 231.606 143.198C231.704 143.198 231.802 143.198 231.899 143.198C231.997 143.198 232.193 143.198 232.29 143.101C233.659 142.905 234.93 142.71 236.299 142.514C238.059 143.003 239.721 143.589 241.285 144.469C242.653 145.154 244.316 146.62 245.978 146.229C246.173 146.131 246.369 146.034 246.564 145.936C246.662 145.936 246.662 145.936 246.76 146.034C246.857 146.034 247.542 146.034 247.346 145.74C247.248 145.643 247.248 145.545 247.151 145.447C247.64 144.86 247.64 144.078 246.955 143.394C246.369 142.807 245.586 142.416 244.707 142.221C246.466 142.221 248.128 142.123 249.888 142.123C250.768 142.123 252.039 142.318 252.723 141.634C252.626 141.243 252.723 141.145 252.723 141.048ZM150.754 142.514C152.318 142.612 153.785 143.003 155.153 143.589C152.807 143.785 150.363 143.394 148.212 142.416C148.896 142.318 149.581 142.221 150.363 142.123C150.363 142.416 150.559 142.514 150.754 142.514ZM141.857 175.07C141.955 175.363 142.053 175.656 142.151 175.95C142.053 175.656 141.955 175.363 141.857 175.07ZM143.324 177.025C143.324 177.025 143.226 177.025 143.324 177.025C143.226 176.927 143.128 176.927 143.031 176.927C143.031 176.83 143.031 176.634 142.933 176.536C142.933 176.536 142.933 176.536 143.031 176.536C143.226 176.732 143.324 176.83 143.519 177.025C143.422 177.025 143.422 177.025 143.324 177.025ZM137.751 177.514C137.947 175.95 138.338 174.386 139.022 172.919C139.022 173.017 139.12 173.212 139.12 173.31C139.12 173.408 139.218 173.408 139.315 173.408C139.315 174.483 139.315 175.559 139.315 176.634C139.218 178.589 138.924 180.545 138.436 182.402C137.36 181.034 137.556 178.981 137.751 177.514ZM145.572 181.913C145.572 182.402 145.377 183.087 144.79 182.696C144.302 182.402 144.204 181.718 144.008 181.131C143.617 179.86 143.422 178.589 143.324 177.318C143.422 177.318 143.422 177.318 143.422 177.416C143.519 177.514 143.617 177.612 143.715 177.612C143.91 177.71 144.106 177.905 144.204 178.003C144.204 178.101 144.302 178.198 144.302 178.198C144.595 178.785 144.79 179.372 144.986 180.056C145.377 180.74 145.572 181.327 145.572 181.913ZM143.031 166.564C144.106 167.444 145.279 168.226 146.061 169.4C143.226 168.324 140.88 166.369 139.413 163.827C139.315 163.534 139.218 163.24 139.12 162.947C139.218 163.143 139.413 163.24 139.511 163.436C140.586 164.413 141.76 165.489 143.031 166.564ZM168.45 180.251C168.547 180.545 168.645 180.936 168.45 181.131C168.254 181.425 167.863 180.936 167.667 180.74C166.885 179.958 166.201 179.078 165.517 178.101C165.614 178.003 165.614 177.905 165.614 177.807C165.126 176.927 164.637 176.145 164.05 175.363C165.614 176.048 166.885 177.221 167.765 178.589C168.059 179.176 168.352 179.763 168.45 180.251ZM179.008 182.891C178.128 182.207 177.444 181.425 176.662 180.643C177.737 181.425 178.617 182.305 179.595 183.282C179.399 183.087 179.204 182.989 179.008 182.891ZM174.315 179.86C175.195 180.349 175.88 181.034 176.662 181.718C175.098 180.838 173.436 179.958 171.871 179.078C172.751 179.274 173.533 179.469 174.315 179.86ZM186.047 187.291C186.145 187.388 186.341 187.584 186.438 187.779C186.047 187.486 185.559 187.193 185.167 186.9C185.167 186.802 185.167 186.802 185.07 186.704C184.874 186.606 184.581 186.411 184.385 186.313C184.092 186.02 183.799 185.824 183.408 185.531C183.603 185.629 183.701 185.629 183.896 185.726C183.994 185.824 184.19 185.726 184.288 185.726C184.483 185.824 184.679 186.02 184.776 186.117C185.265 186.508 185.656 186.9 186.047 187.291ZM153.589 168.617C153.491 168.324 153.394 168.129 153.296 167.835C153.491 168.031 153.785 168.226 153.98 168.422C153.785 168.422 153.687 168.52 153.589 168.617ZM153.003 167.346C153.003 167.249 152.905 167.151 152.905 167.151C153.003 167.151 153.003 167.249 153.003 167.346C153.1 167.346 153.003 167.346 153.003 167.346ZM157.5 175.559C156.718 175.559 156.229 174.288 155.936 173.701C155.545 172.821 155.153 171.941 154.762 171.062C154.469 170.377 154.176 169.791 153.883 169.106C155.545 170.768 156.815 172.821 157.5 175.07C157.5 175.265 157.793 175.265 157.891 175.168C157.793 175.461 157.793 175.559 157.5 175.559ZM156.815 170.866C156.522 170.475 156.327 170.084 156.033 169.693C156.424 169.986 156.815 170.279 157.109 170.573C156.913 170.573 156.718 170.768 156.815 170.866ZM166.103 172.528C164.05 171.746 161.997 171.257 159.944 170.866C159.357 170.768 158.869 170.67 158.282 170.573C157.109 169.693 155.936 168.715 154.762 167.835C155.936 168.813 157.304 169.595 158.771 170.084C160.824 170.67 165.321 169.693 166.103 172.528ZM152.905 166.271L152.807 166.173C152.807 166.173 152.905 166.173 152.905 166.271ZM165.028 166.173C164.343 165.782 163.757 165.489 163.072 165.098C163.268 165.098 163.366 165 163.464 165C163.952 165.391 164.441 165.782 165.028 166.173ZM173.142 169.106C172.653 168.911 172.165 168.715 171.676 168.52C172.165 168.715 172.653 168.911 173.142 169.106ZM168.938 167.933C169.232 168.031 169.525 168.226 169.916 168.324C169.818 168.324 169.818 168.324 169.721 168.324C169.427 168.226 169.134 168.031 168.841 167.933C168.841 167.933 168.841 167.933 168.938 167.933ZM158.086 162.849C157.402 162.556 156.815 162.263 156.131 161.969H156.229C156.718 161.872 157.304 162.263 157.695 162.556C157.793 162.654 157.891 162.751 158.086 162.849ZM155.642 161.481C155.545 161.578 155.545 161.578 155.545 161.676C155.545 161.676 155.545 161.676 155.545 161.774C155.251 161.676 154.958 161.578 154.665 161.383C154.86 161.383 155.153 161.481 155.349 161.481C155.447 161.481 155.545 161.481 155.642 161.481ZM169.525 169.791C169.623 169.986 169.721 170.084 169.818 170.279C169.721 170.084 169.623 169.986 169.525 169.791ZM178.519 176.536C177.444 175.656 176.466 174.679 175.489 173.701C175.88 173.897 176.173 174.092 176.564 174.386C176.564 174.386 176.564 174.483 176.662 174.483C177.053 174.777 177.444 175.168 177.835 175.559C178.031 175.852 178.226 176.243 178.519 176.536ZM181.061 175.265C181.257 175.265 181.355 175.363 181.55 175.363H181.648C181.55 175.363 181.355 175.265 181.061 175.265ZM182.039 179.567C181.941 179.567 181.843 179.469 181.648 179.274C181.746 179.274 181.843 179.274 181.941 179.176C182.039 179.372 182.137 179.469 182.039 179.567C182.137 179.665 182.137 179.665 182.039 179.567ZM181.355 178.296C180.279 177.221 179.204 176.145 178.128 175.07C178.128 175.07 178.128 175.07 178.031 174.972C178.617 175.363 179.204 175.754 179.693 176.243C180.377 176.83 180.866 177.514 181.355 178.296ZM178.617 173.701C180.084 174.19 181.648 174.679 183.017 175.363C183.114 175.363 183.212 175.461 183.212 175.559C183.017 175.461 182.723 175.265 182.43 175.168C181.843 174.972 181.159 174.874 180.475 174.874C180.084 174.874 179.693 174.777 179.302 174.777C179.008 174.581 178.715 174.386 178.422 174.19C178.324 174.092 178.031 174.19 177.933 174.288C177.542 174.092 177.151 173.897 176.76 173.701H176.662C176.271 173.506 175.88 173.408 175.489 173.31C175.391 173.017 175.195 173.017 175 172.919C174.902 172.919 174.804 172.919 174.707 172.919C174.609 172.821 174.511 172.724 174.413 172.626C175.782 172.919 177.151 173.31 178.617 173.701ZM170.112 168.52L170.014 168.422C170.014 168.422 170.014 168.422 169.916 168.422C170.503 168.617 171.089 168.911 171.676 169.106C171.089 168.911 170.6 168.715 170.112 168.52ZM164.539 161.187C164.637 161.285 164.832 161.383 164.93 161.481C164.637 161.383 164.343 161.285 164.05 161.187C164.246 161.187 164.441 161.187 164.539 161.187ZM168.352 159.232C168.45 159.33 168.547 159.33 168.645 159.33C168.059 159.525 167.472 159.721 166.788 159.721C167.374 159.525 167.863 159.33 168.352 159.232ZM170.6 158.352C170.503 158.352 170.503 158.352 170.6 158.352C170.503 158.352 170.503 158.352 170.6 158.352C170.503 158.352 170.6 158.352 170.6 158.352ZM163.757 160.503C163.659 160.503 163.659 160.503 163.757 160.503C163.659 160.503 163.659 160.503 163.757 160.503ZM170.209 164.609C169.427 164.707 168.547 164.12 167.863 163.534C167.765 163.436 167.57 163.338 167.472 163.24C168.45 163.827 169.525 164.511 170.6 164.218H170.698C170.698 164.413 170.503 164.609 170.209 164.609ZM168.156 161.676C168.841 161.969 169.427 162.458 169.916 162.947C170.209 163.143 170.503 163.436 170.6 163.729V163.827C168.841 163.436 167.276 162.556 166.103 161.285C166.592 161.285 167.081 161.383 167.57 161.383C167.765 161.481 167.961 161.578 168.156 161.676ZM175.293 162.263C175.098 162.263 175 162.165 174.804 162.165C175 162.165 175.098 162.165 175.293 162.263ZM176.662 161.872C175.978 161.774 175.293 161.774 174.511 161.676C174.511 161.578 174.413 161.578 174.315 161.578C172.556 161.383 170.698 161.089 168.938 160.894C171.48 159.623 174.511 160.112 176.662 161.872ZM165.321 160.307C165.614 160.21 165.908 160.21 166.201 160.21C166.005 160.21 165.712 160.307 165.517 160.307C165.419 160.307 165.419 160.307 165.321 160.307ZM167.081 158.156C167.863 157.863 168.743 157.765 169.525 158.059C169.036 158.254 168.547 158.45 168.059 158.645C167.472 158.841 166.788 159.134 166.201 159.33C165.908 159.427 165.517 159.525 165.223 159.623C164.343 159.818 163.561 160.014 162.681 160.21C162.29 160.307 161.802 160.405 161.313 160.503C161.019 160.503 160.726 160.503 160.531 160.503C161.802 160.112 162.975 159.721 164.246 159.33C165.223 158.939 166.103 158.45 167.081 158.156ZM159.357 160.796C159.357 160.796 159.26 160.796 159.357 160.796C159.26 160.796 159.357 160.796 159.357 160.796ZM121.033 139.19C121.033 139.19 121.033 139.092 121.033 139.19C121.033 139.092 121.033 139.092 121.033 139.19ZM204.818 152.779C205.405 152.779 205.991 152.682 206.48 152.584C205.991 152.779 205.405 152.779 204.818 152.779ZM207.556 152.193C206.285 152.388 204.916 152.486 203.645 152.486C205.112 152.291 206.48 152.095 207.947 151.802C207.849 151.997 207.653 152.095 207.556 152.193ZM204.916 157.57C204.427 157.081 204.036 156.494 203.547 156.006C203.254 155.615 202.863 155.224 202.57 154.832C202.863 155.028 203.156 155.224 203.352 155.419C203.352 155.419 203.45 155.419 203.547 155.517C204.525 156.592 205.307 157.765 206.187 158.939C205.698 158.548 205.307 157.961 204.916 157.57ZM220.07 159.623C219.385 159.232 218.799 158.841 218.114 158.45C217.332 157.765 216.452 157.081 215.572 156.592C216.159 156.788 216.843 156.983 217.43 157.179C218.701 157.668 220.461 158.645 220.754 160.014C220.461 159.818 220.265 159.721 220.07 159.623ZM222.514 157.374C221.927 157.472 221.243 157.57 220.656 157.472C220.363 157.472 219.776 157.472 219.581 157.277C219.581 157.179 219.483 157.179 219.483 157.179C220.265 157.277 221.047 157.277 221.829 157.277C222.318 157.277 222.905 157.277 223.394 157.179C223.003 157.277 222.709 157.374 222.514 157.374ZM222.123 155.81C223.491 155.517 224.86 155.224 226.131 155.712C225.838 156.006 225.447 156.201 225.056 156.397C224.665 156.494 224.176 156.592 223.785 156.69C223.491 156.69 223.198 156.788 222.905 156.788C222.807 156.788 222.709 156.788 222.612 156.788C222.318 156.788 222.025 156.788 221.732 156.788C221.341 156.788 220.95 156.69 220.559 156.69C220.167 156.592 219.776 156.494 219.385 156.494C219.288 156.494 219.19 156.494 218.994 156.592C218.896 156.494 218.799 156.397 218.603 156.299C219.874 156.397 221.047 156.103 222.123 155.81ZM215.475 155.419C214.497 155.224 213.519 155.028 212.542 155.028C212.346 155.028 211.76 155.419 212.248 155.517C212.346 155.517 212.444 155.517 212.542 155.615C212.542 155.615 212.444 155.615 212.444 155.712C210.978 155.321 209.413 155.126 207.849 154.93C210.391 154.637 213.031 154.637 215.475 155.419ZM205.209 151.997C204.329 152.095 203.352 152.193 202.472 152.291C203.352 152.193 204.232 152.095 205.209 151.997ZM227.598 136.648C227.598 136.648 227.695 136.648 227.695 136.746C227.695 136.746 227.695 136.746 227.598 136.648C227.598 136.746 227.598 136.648 227.598 136.648ZM232.193 134.986C231.215 135.67 229.455 136.746 228.282 136.257H228.38C230.14 135.866 231.802 135.084 233.366 134.204C232.975 134.497 232.584 134.791 232.193 134.986ZM226.913 137.039C227.011 137.137 227.207 137.137 227.402 137.235C227.598 137.235 227.793 137.235 227.891 137.235C227.793 137.235 227.793 137.235 227.695 137.332C227.598 137.43 227.5 137.43 227.5 137.528C225.936 138.115 224.469 138.701 222.905 139.092C224.371 138.506 225.642 137.821 226.913 137.039ZM235.81 132.835C236.103 132.542 236.299 132.346 236.592 132.053C236.788 131.955 236.885 131.858 237.081 131.662C236.69 132.151 236.299 132.542 235.81 132.835ZM221.438 139.19C221.341 139.092 221.243 139.092 221.145 138.994C223.003 138.31 224.762 137.626 226.522 136.844C224.958 137.724 223.198 138.506 221.438 139.19ZM220.656 138.115C220.656 138.017 220.656 138.017 220.656 137.919V137.821C220.656 137.821 220.656 137.821 220.656 137.724C220.852 137.724 220.95 137.821 221.145 137.724C220.852 137.919 220.754 138.017 220.656 138.115ZM237.179 135.67C238.45 135.573 239.721 135.475 240.991 135.475C238.938 135.67 236.983 135.964 234.93 136.159C235.614 136.062 236.397 135.866 237.179 135.67ZM235.614 135.377C236.885 135.182 238.059 134.986 239.329 134.888C239.525 134.888 239.721 134.888 239.916 134.888C239.134 134.986 238.254 135.084 237.472 135.279C236.494 135.377 235.517 135.475 234.539 135.67C234.343 135.768 234.246 135.866 234.246 135.964C233.268 136.159 232.29 136.453 231.313 136.55C231.019 136.55 230.726 136.648 230.433 136.648C230.628 136.55 230.922 136.453 231.117 136.355C232.681 136.062 234.148 135.67 235.614 135.377ZM228.575 135.084C230.14 133.52 232.095 132.249 234.148 131.467C234.637 131.271 235.223 131.075 235.712 130.88C236.201 130.684 236.885 130.489 237.374 130.489C237.472 130.489 237.472 130.489 237.57 130.587C237.179 130.978 236.788 131.271 236.397 131.564C236.299 131.564 236.299 131.564 236.299 131.662C235.517 132.249 234.734 132.737 233.952 133.324C232.193 134.302 230.335 134.986 228.38 135.377C228.38 135.182 228.478 135.084 228.575 135.084ZM225.251 132.835C225.251 133.226 225.056 133.52 224.86 133.911C224.86 133.911 224.86 133.911 224.762 133.911C224.665 133.911 224.469 134.008 224.371 134.106C223.785 135.182 222.905 136.062 221.829 136.746C221.732 136.746 221.634 136.746 221.536 136.844C221.341 137.039 221.047 137.137 220.754 137.137C220.461 136.941 220.461 136.648 220.559 136.355C220.656 136.062 220.852 135.67 221.047 135.377C222.123 134.302 223.394 133.324 224.665 132.542L224.762 132.444C225.056 132.346 225.251 132.542 225.251 132.835ZM249.008 140.265C246.662 140.559 244.315 140.754 241.969 140.95C241.774 140.95 241.578 141.145 241.578 141.243C241.285 141.243 240.991 141.341 240.698 141.341C242.262 140.656 243.827 140.265 245.489 140.168C246.662 140.07 247.933 140.168 249.106 140.363C249.106 140.168 249.008 140.168 249.008 140.265ZM239.036 142.123C239.329 142.221 239.525 142.318 239.818 142.318C239.916 142.416 240.112 142.416 240.209 142.514C240.014 142.416 239.721 142.318 239.525 142.221C239.329 142.123 238.841 142.318 238.841 142.514C238.743 142.514 238.645 142.416 238.547 142.416C238.645 142.318 238.841 142.221 239.036 142.123ZM244.022 144.958C244.218 145.056 244.511 145.056 244.707 145.154C244.902 145.154 245 145.251 245.195 145.251C245.391 145.349 245.586 145.349 245.782 145.447C245.293 145.643 244.609 145.251 244.022 144.958ZM244.218 144.176C243.827 143.981 243.436 143.883 243.045 143.687C242.751 143.492 242.458 143.296 242.165 143.101C243.338 143.492 244.511 143.981 245.684 144.372C245.098 144.372 244.707 144.274 244.218 144.176ZM244.609 142.71C245 142.905 245.586 143.492 245.978 143.981C244.12 143.198 242.165 142.612 240.307 142.025C240.112 141.927 239.916 141.83 239.721 141.83C239.818 141.83 240.014 141.83 240.112 141.83C240.112 141.927 240.209 142.025 240.405 142.025C240.991 142.025 241.578 142.025 242.067 142.025C242.262 142.025 242.36 142.025 242.556 142.025C243.24 142.123 244.022 142.318 244.609 142.71ZM251.941 140.852C251.941 140.754 252.039 140.656 252.039 140.559H252.137C252.137 140.656 252.137 140.754 252.137 140.852C252.039 140.852 252.039 140.852 251.941 140.852ZM250.866 139.777C251.061 139.874 251.257 139.874 251.55 140.07C251.257 140.07 250.964 140.07 250.572 140.07C249.106 139.581 246.466 139.581 245.978 139.581C245.782 139.581 245.586 139.581 245.391 139.679C247.248 139.19 249.106 139.19 250.866 139.777ZM226.718 142.025C226.718 142.025 226.815 142.025 226.815 142.123C226.913 142.123 227.011 142.221 227.011 142.221C226.913 142.221 226.718 142.318 226.718 142.416C226.327 142.416 225.838 142.318 225.74 142.221C226.033 142.123 226.424 142.025 226.718 142.025ZM234.343 140.95C234.637 140.852 234.93 140.852 235.223 140.754C235.223 140.754 235.126 140.852 235.028 140.852C234.148 141.243 233.17 141.439 232.193 141.536C232.975 141.439 233.659 141.243 234.343 140.95ZM230.335 141.83C231.313 141.83 232.388 141.83 233.366 141.634C232.095 142.025 230.628 142.123 229.26 142.123C229.064 142.123 228.966 142.025 228.771 142.025C229.357 142.025 229.846 141.927 230.335 141.83ZM229.455 141.439C230.531 141.145 231.606 140.852 232.584 140.363C233.659 139.972 235.321 138.701 236.494 139.288C235.517 139.972 234.441 140.461 233.366 140.852C232.193 141.048 231.019 141.341 229.748 141.536C229.651 141.536 229.455 141.634 229.357 141.732C228.869 141.83 228.478 141.83 227.989 141.927C227.989 141.927 227.891 141.927 227.695 142.025C227.695 142.025 227.598 142.025 227.598 141.927C227.598 141.927 227.5 141.927 227.5 141.83C228.184 141.732 228.869 141.634 229.455 141.439ZM226.229 141.83C226.033 141.83 225.838 141.927 225.545 141.927C225.74 141.732 226.131 141.732 226.229 141.83ZM224.762 142.221C224.762 142.318 224.762 142.318 224.762 142.221C225.545 142.514 226.327 142.612 227.109 142.807C226.522 142.807 225.936 142.905 225.447 143.003H225.349C224.665 142.71 224.078 142.514 223.394 142.318C223.883 142.318 224.274 142.221 224.762 142.221ZM233.757 146.62C233.855 146.62 234.05 146.522 234.05 146.522C234.148 146.522 234.343 146.522 234.539 146.425C234.343 146.522 234.148 146.62 234.05 146.718C233.952 146.718 233.855 146.62 233.757 146.62ZM227.598 143.785C227.793 143.981 228.086 144.176 228.282 144.274C227.598 143.981 227.011 143.589 226.327 143.296C226.815 143.492 227.207 143.687 227.598 143.785ZM234.539 146.131C233.659 145.643 232.681 145.349 231.704 145.056C230.433 144.372 229.064 143.687 227.695 143.003C227.598 143.003 227.304 143.003 227.109 143.101C227.011 143.101 226.913 143.003 226.718 143.003C229.064 142.807 231.606 143.003 233.366 144.665C233.757 144.958 234.539 145.643 234.539 146.131ZM238.352 142.025C238.254 142.123 238.156 142.123 238.059 142.221C237.961 142.221 237.961 142.318 237.961 142.318C237.765 142.221 237.57 142.221 237.374 142.123C237.667 142.025 238.059 142.025 238.352 142.025Z" fill="black"/>
<path fill-rule="evenodd" clip-rule="evenodd" d="M294.27 181.078C324.734 162.519 343.156 137.144 343.156 109.469C343.156 81.7942 324.734 56.4195 294.27 37.8607C263.84 19.3228 221.676 7.7932 175 7.7932C128.324 7.7932 86.1606 19.3228 55.7305 37.8607C25.266 56.4195 6.84398 81.7942 6.84398 109.469C6.84398 137.144 25.266 162.519 55.7305 181.078C86.1606 199.616 128.324 211.145 175 211.145C221.676 211.145 263.84 199.616 294.27 181.078ZM175 213.101C268.95 213.101 345.112 166.703 345.112 109.469C345.112 52.2352 268.95 5.83789 175 5.83789C81.0503 5.83789 4.88867 52.2352 4.88867 109.469C4.88867 166.703 81.0503 213.101 175 213.101Z" fill="black"/>
<path fill-rule="evenodd" clip-rule="evenodd" d="M297.713 184.542C329.055 165.107 348.045 138.511 348.045 109.469C348.045 80.4273 329.055 53.8317 297.713 34.396C266.401 14.9787 223.02 2.90502 175 2.90502C126.98 2.90502 83.5994 14.9787 52.2868 34.396C20.9445 53.8317 1.95531 80.4273 1.95531 109.469C1.95531 138.511 20.9445 165.107 52.2868 184.542C83.5994 203.96 126.98 216.034 175 216.034C223.02 216.034 266.401 203.96 297.713 184.542ZM175 217.989C271.65 217.989 350 169.403 350 109.469C350 49.5355 271.65 0.949707 175 0.949707C78.3502 0.949707 0 49.5355 0 109.469C0 169.403 78.3502 217.989 175 217.989Z" fill="black"/>
</svg>
